Coordinates
version=1
nRows=29
nColumns=18
inDegrees=yes

Units are S.I. units (second, meters, Newtons, ...)
Angles are in degrees.

endheader
time	ground_thorax_rot_x	ground_thorax_rot_y	ground_thorax_rot_z	ground_thorax_tx	ground_thorax_ty	ground_thorax_tz	clav_prot	clav_elev	scapula_abduction	scapula_elevation	scapula_upward_rot	scapula_winging	plane_elv	shoulder_elv	axial_rot	elbow_flexion	pro_sup
      6.15000000	      0.85951221	     -2.77957838	     -8.90051484	     -0.00423131	      0.00403036	     -0.00078352	    -24.62710074	     -3.18314456	    -15.66122792	     -3.60293911	     14.14731221	      4.76772825	     34.77970811	     25.99735277	      4.53084765	      0.00000000	     34.32000000
      6.16000000	      0.94108815	     -2.41580217	     -8.87143825	     -0.00423131	      0.00403036	     -0.00078352	    -24.81166499	     -2.99569790	    -16.05375820	     -3.46158534	     14.10859122	      4.71657846	     34.67244649	     25.41735193	      4.58664851	      0.00000000	     34.32000000
      6.17000000	      1.01118987	     -2.36102567	     -9.10033722	     -0.00423131	      0.00403036	     -0.00078352	    -24.77637584	     -2.95341717	    -16.06322709	     -3.40132082	     14.00998126	      4.73039778	     34.65914641	     25.21453235	      4.61767850	      0.00000000	     34.32000000
      6.18000000	      0.68275768	     -2.00373434	     -8.96920853	     -0.00423131	      0.00403036	     -0.00078352	    -24.82377903	     -3.09725920	    -16.27161303	     -3.43979903	     13.72573983	      4.84450462	     33.20860472	     23.53237662	     15.79856790	      0.00000000	     34.32000000
      6.19000000	      0.88147771	     -1.89421059	     -9.17014390	     -0.00423131	      0.00403036	     -0.00078352	    -24.88136202	     -3.11754067	    -16.24661891	     -3.51155224	     13.92645340	      4.79696233	     32.00450982	     23.21590576	     15.81427600	      0.00000000	     34.32000000
      6.20000000	      1.03163988	     -2.03649194	     -9.09791723	     -0.00423131	      0.00403036	     -0.00078352	    -24.68957835	     -3.08162857	    -15.87558797	     -3.49473695	     14.01425992	      4.77014844	     29.92842333	     23.09108303	     14.64992831	      0.00000000	     34.32000000
      6.21000000	      1.08260471	     -2.35579015	     -9.26513466	     -0.00423131	      0.00403036	     -0.00078352	    -24.31146832	     -3.40435585	    -15.22067429	     -3.67986924	     13.87122890	      4.91321357	     27.64031041	     23.26404069	     14.42306449	      0.00000000	     34.32000000
      6.22000000	      1.16480861	     -2.37825757	     -9.30715549	     -0.00423131	      0.00403036	     -0.00078352	    -24.18195062	     -3.54020089	    -15.06750121	     -3.72832126	     13.69025753	      5.00317905	     25.68304530	     23.20730112	     14.83093198	      0.00000000	     34.32000000
      6.23000000	      1.09057154	     -2.29077296	     -9.07751640	     -0.00423131	      0.00403036	     -0.00078352	    -24.18944405	     -3.44238951	    -15.22964526	     -3.59908286	     13.48095938	      5.02695539	     24.06054899	     22.77031247	     14.69660185	      0.00000000	     34.32000000
      6.24000000	      1.11937361	     -2.26047951	     -9.10486144	     -0.00423131	      0.00403036	     -0.00078352	    -24.21039337	     -3.42152391	    -15.31663359	     -3.56412641	     13.40367756	      5.04027501	     23.08540012	     22.35127623	     14.19503304	      0.00000000	     34.32000000
      6.25000000	      1.05007223	     -2.28537086	     -9.12419510	     -0.00423131	      0.00403036	     -0.00078352	    -24.20446377	     -3.44065356	    -15.35513492	     -3.55407594	     13.31131981	      5.06991652	     21.96795011	     21.81382160	     14.15105513	      0.00000000	     34.32000000
      6.26000000	      1.03808257	     -2.32641874	     -9.18179856	     -0.00423131	      0.00403036	     -0.00078352	    -24.13955318	     -3.48097165	    -15.29905707	     -3.55070341	     13.19698987	      5.11236335	     20.57444548	     21.45717676	     14.45214975	      0.00000000	     34.32000000
      6.27000000	      1.01960629	     -2.54037712	     -9.15870943	     -0.00423131	      0.00403036	     -0.00078352	    -23.72630394	     -3.67131550	    -14.67673482	     -3.60644963	     12.95403676	      5.23448986	     18.12357523	     20.38572384	     26.81675141	      0.00000000	     34.32000000
      6.28000000	      1.25769812	     -2.46113728	     -9.18350538	     -0.00423131	      0.00403036	     -0.00078352	    -23.72056960	     -3.71827921	    -14.70305329	     -3.61978899	     12.86979973	      5.27046395	     16.44547757	     20.49164043	     26.47345807	      0.00000000	     34.32000000
      6.29000000	      1.10939662	     -2.66900714	     -9.26812219	     -0.00423131	      0.00403036	     -0.00078352	    -23.45487427	     -4.16586951	    -14.16319641	     -3.92995145	     12.80661269	      5.42357323	     13.68712074	     20.38743631	     26.49052709	      0.00000000	     34.32000000
      6.30000000	      1.18183496	     -2.81887349	     -9.41821683	     -0.00423131	      0.00403036	     -0.00078352	    -23.45001442	     -4.14670402	    -14.18925697	     -3.90147891	     12.75575787	      5.43062849	     13.63819791	     20.33963757	     26.49534265	      0.00000000	     34.32000000
      6.31000000	      1.11051833	     -2.85334637	     -9.37573658	     -0.00423131	      0.00403036	     -0.00078352	    -23.41260494	     -4.05940894	    -14.26249153	     -3.77920012	     12.55603502	      5.45334266	     12.25269180	     20.28096580	     26.41324403	      0.00000000	     34.32000000
      6.32000000	      0.92292685	     -2.98150885	     -9.31205080	     -0.00423131	      0.00403036	     -0.00078352	    -23.26371899	     -4.15458178	    -14.16148653	     -3.75920680	     12.24078490	      5.56094564	     10.73027174	     19.90990136	     28.97566193	      0.00000000	     34.32000000
      6.33000000	      0.95447643	     -3.02160252	     -9.33879118	     -0.00423131	      0.00403036	     -0.00078352	    -23.24488995	     -4.23603094	    -14.20911805	     -3.77327461	     12.06337329	      5.63112813	      9.19694107	     19.68259165	     31.04347605	      0.00000000	     34.32000000
      6.34000000	      1.00791811	     -3.14163048	     -9.33314060	     -0.00423131	      0.00403036	     -0.00078352	    -23.08360963	     -4.44899900	    -14.00521726	     -3.86633060	     11.83590932	      5.75241514	      6.98540628	     19.69515061	     33.15489162	      0.00000000	     34.32000000
      6.35000000	      1.11884518	     -3.22119909	     -9.41063975	     -0.00423131	      0.00403036	     -0.00078352	    -22.93362548	     -4.67588683	    -13.78779889	     -3.98499965	     11.66102304	      5.86511733	      4.89579829	     19.98981552	     33.93520181	      0.00000000	     34.32000000
      6.36000000	      1.45338582	     -3.21151267	     -9.59337600	     -0.00423131	      0.00403036	     -0.00078352	    -22.94288626	     -4.63959707	    -13.76056348	     -3.98243074	     11.75360791	      5.83052229	      4.19799372	     20.60519808	     31.88951301	      0.00000000	     34.32000000
      6.37000000	      1.27336142	     -3.70299878	     -9.37207891	     -0.00423131	      0.00403036	     -0.00078352	    -22.23121047	     -4.65076581	    -12.53368914	     -3.94461157	     11.74078664	      5.80798288	      1.21692319	     20.40429225	     35.88409067	      0.00000000	     34.32000000
      6.38000000	      1.30629796	     -3.90276787	     -9.54142362	     -0.00423131	      0.00403036	     -0.00078352	    -22.07952606	     -4.60027237	    -12.22293749	     -3.92533535	     11.84755587	      5.75662954	      0.51403765	     20.70301771	     33.52630330	      0.00000000	     34.32000000
      6.39000000	      1.25616503	     -4.11283000	     -9.41038772	     -0.00423131	      0.00403036	     -0.00078352	    -21.75825743	     -4.52619458	    -11.81201234	     -3.78866743	     11.62143046	      5.77004794	     -1.34565169	     20.72732458	     36.71121928	      0.00000000	     34.32000000
      6.40000000	      1.56543017	     -4.02062787	     -9.61989343	     -0.00423131	      0.00403036	     -0.00078352	    -21.77561116	     -4.49587890	    -11.91743418	     -3.73383976	     11.50122272	      5.79279230	     -1.89979954	     21.14317857	     36.75264035	      0.00000000	     34.32000000
      6.41000000	      1.28368615	     -3.79674897	     -9.45538561	     -0.00423131	      0.00403036	     -0.00078352	    -21.73701429	     -4.97823526	    -12.07924966	     -3.93581732	     10.88049665	      6.09911724	     -4.40815695	     21.43338534	     37.75425575	      0.00000000	     34.32000000
      6.42000000	      1.33264253	     -3.70701977	     -9.45477119	     -0.00423131	      0.00403036	     -0.00078352	    -21.74200925	     -5.08720423	    -12.23887523	     -3.93341117	     10.56072988	      6.21439410	     -5.52615537	     21.58035791	     39.01797558	      0.00000000	     34.32000000
      6.43000000	      1.38704530	     -3.71471994	     -9.45765927	     -0.00423131	      0.00403036	     -0.00078352	    -21.82207191	     -5.07028572	    -12.40097648	     -3.91558457	     10.52596437	      6.22298946	     -6.19524429	     21.82230888	     38.01895825	      0.00000000	     34.32000000
